<?xml version="1.0" encoding="UTF-8"?>
<svg width="512px" height="512px" viewBox="0 0 512 512" version="1.1" xmlns="http://www.w3.org/2000/svg">
    <title>Binance Smart Chain BEP-20</title>
    <g stroke="none" stroke-width="1" fill="none" fill-rule="evenodd">
        <circle fill="#F3BA2F" cx="256" cy="256" r="256"></circle>
        <g fill="#FFFFFF" fill-rule="nonzero">
            <path d="M183.6,256 L183.6,207.267 L256,134.867 L328.4,207.267 L328.4,256 L256,328.4 L183.6,256 Z M111.2,256 L111.2,182.4 L256,37.6 L400.8,182.4 L400.8,256 L256,400.8 L111.2,256 Z M298.667,256 L256,298.667 L213.333,256 L256,213.333 L298.667,256 Z M256,91.7333 L91.7333,256 L256,420.267 L420.267,256 L256,91.7333 Z"></path>
        </g>
        <!-- Path-based text to avoid font-family issues -->
        <g transform="translate(128, 438)" fill="#FFFFFF">
            <path d="M12.2-4.3h9.2v4.3H7.3v-25.5h4.9V-4.3z"></path>
            <path d="M39.5,0h-4.6l-0.5-3.3c-2,2.6-4.7,3.8-7.9,3.8c-2.5,0-4.5-0.7-5.9-2.1c-1.4-1.4-2.1-3.3-2.1-5.7c0-2.5,0.9-4.5,2.7-5.8c1.8-1.3,4.2-2,7.3-2h5.6v-1.8c0-1.7-0.4-3-1.3-3.8c-0.9-0.8-2.2-1.2-4-1.2c-3.1,0-6.2,1-9.3,3v-4.7c2.9-1.3,6.1-2,9.5-2c3.4,0,6,0.8,7.8,2.4c1.8,1.6,2.7,3.9,2.7,6.9V0z M34.8-8.3v-3.1h-4.9c-3.6,0-5.5,1.2-5.5,3.6c0,1.2,0.4,2.2,1.1,2.8c0.8,0.7,1.8,1,3.1,1C31.2-4,33.4-5.4,34.8-8.3z"></path>
            <path d="M52.9-25.5v9.7c1.6-2.7,4-4.1,7.2-4.1c2.7,0,4.8,0.9,6.4,2.8c1.6,1.9,2.3,4.5,2.3,7.9V0h-4.7v-8.7c0-2.3-0.4-4.1-1.3-5.3c-0.9-1.2-2.1-1.8-3.8-1.8c-2.2,0-4.1,1.4-5.6,4.2V0h-4.7v-25.5H52.9z"></path>
            <path d="M91.6-8.9c0,3-0.9,5.4-2.8,7.1c-1.9,1.7-4.5,2.6-7.9,2.6c-2.8,0-5.5-0.5-8.2-1.6v-5c3,1.4,5.7,2.1,8.2,2.1c1.7,0,3.1-0.4,4.1-1.2c1-0.8,1.5-1.9,1.5-3.3c0-0.9-0.2-1.7-0.7-2.4c-0.5-0.7-1.2-1.3-2.1-1.9c-1-0.6-2.3-1.3-4-2.1c-2.5-1.2-4.2-2.5-5.3-3.9c-1.1-1.4-1.6-3.1-1.6-5.1c0-2.5,0.9-4.5,2.7-6.1c1.8-1.5,4.1-2.3,7-2.3c2.7,0,5.5,0.6,8.3,1.9v4.7c-2.7-1.5-5.3-2.2-7.8-2.2c-1.5,0-2.7,0.4-3.6,1.1c-0.9,0.7-1.4,1.7-1.4,2.9c0,1.3,0.5,2.4,1.4,3.3c0.9,0.9,2.7,1.9,5.2,3.1c2.5,1.2,4.3,2.4,5.4,3.9C91.1-12.5,91.6-10.8,91.6-8.9z"></path>
            <path d="M106.2,0h-4.7v-19.4h4.7V0z M105.9-24.2c0,0.7-0.3,1.4-0.8,1.9c-0.5,0.5-1.2,0.8-2,0.8c-0.8,0-1.5-0.3-2-0.8c-0.5-0.5-0.8-1.2-0.8-1.9c0-0.8,0.3-1.4,0.8-1.9c0.5-0.5,1.2-0.8,2-0.8c0.8,0,1.5,0.3,2,0.8C105.6-25.6,105.9-25,105.9-24.2z"></path>
            <path d="M126.1-19.9v3.9c-1.6-0.7-3.3-1.1-5.2-1.1c-2.1,0-3.8,0.7-5.1,2.2c-1.3,1.5-1.9,3.4-1.9,5.9c0,2.6,0.7,4.6,2,6.1c1.3,1.5,3.1,2.2,5.3,2.2c1.9,0,3.7-0.4,5.2-1.2v4c-1.5,0.6-3.4,0.9-5.7,0.9c-3.4,0-6.2-1.1-8.2-3.3c-2.1-2.2-3.1-5.1-3.1-8.8c0-3.6,1-6.5,3.1-8.8c2.1-2.2,4.8-3.4,8.2-3.4C122.7-20.9,124.5-20.6,126.1-19.9z"></path>
            <path d="M145.1-5.3c0,1.9-0.8,3.3-2.3,4.4c-1.5,1-3.6,1.5-6.2,1.5c-2.3,0-4.4-0.4-6.2-1.3v-4.4c2.2,1.3,4.3,1.9,6.2,1.9c2.5,0,3.7-0.7,3.7-2.1c0-0.5-0.2-0.9-0.5-1.2c-0.3-0.3-0.9-0.7-1.7-1c-0.8-0.4-1.7-0.7-2.7-1.1c-2.9-1.1-4.3-2.9-4.3-5.4c0-1.7,0.7-3.1,2.1-4.1c1.4-1,3.3-1.5,5.7-1.5c2.1,0,4.1,0.4,6,1.3v4.2c-1.8-1-3.7-1.6-5.6-1.6c-2.1,0-3.1,0.6-3.1,1.9c0,0.6,0.3,1.1,0.9,1.5c0.6,0.4,1.9,0.9,3.8,1.7c1.9,0.7,3.3,1.6,4.1,2.5C144.7-7.9,145.1-6.8,145.1-5.3z"></path>
            <path d="M161.2-19.9v3.8c-1.8-0.8-3.5-1.2-5.1-1.2c-1.5,0-2.8,0.3-3.7,1c-0.9,0.7-1.4,1.5-1.4,2.6c0,0.7,0.2,1.4,0.7,1.9c0.5,0.5,1.2,1,2.1,1.3c0.9,0.4,2.1,0.8,3.6,1.3c1.9,0.6,3.4,1.2,4.5,1.9c1.1,0.7,2,1.5,2.6,2.5c0.6,1,0.9,2.3,0.9,3.8c0,2.3-0.9,4.1-2.8,5.6c-1.9,1.4-4.3,2.1-7.3,2.1c-2.5,0-4.8-0.4-7-1.3v-4.2c2.5,1.2,4.8,1.8,6.9,1.8c1.7,0,3-0.3,3.9-1c1-0.6,1.5-1.5,1.5-2.7c0-0.8-0.2-1.5-0.7-2c-0.5-0.5-1.1-1-2-1.3c-0.9-0.4-2-0.8-3.5-1.3c-1.9-0.6-3.4-1.2-4.5-1.8c-1.1-0.6-2-1.4-2.6-2.4c-0.6-1-0.9-2.2-0.9-3.7c0-2.2,0.9-4,2.7-5.3c1.8-1.3,4.2-2,7.1-2C157.2-20.9,159.2-20.6,161.2-19.9z"></path>
        </g>
    </g>
</svg>