<svg width="24" height="24" viewBox="0 0 24 24" fill="none" xmlns="http://www.w3.org/2000/svg">
  <circle cx="12" cy="12" r="12" fill="#F3BA2F"/>
  <path d="M9.087 10.946L12 8.033L14.9145 10.9475L16.6525 9.2095L12 4.557L7.349 9.208L9.087 10.946Z" fill="white"/>
  <path d="M7.349 14.793L9.087 16.531L12 18.443L14.9145 16.5295L16.6525 14.7915L14.9145 13.0535L12 15.968L9.087 13.0535L7.349 14.793Z" fill="white"/>
  <path d="M16.651 10.946L14.913 9.208L16.651 7.47L18.389 9.208L16.651 10.946Z" fill="white"/>
  <path d="M7.349 10.946L9.087 9.208L7.349 7.47L5.611 9.208L7.349 10.946Z" fill="white"/>
  <path d="M12 11.0795L13.8885 12.968L15.6265 11.23L13.738 9.3415L12 11.0795Z" fill="white"/>
  <path d="M10.1115 12.968L12 11.0795L10.262 9.3415L8.3735 11.23L10.1115 12.968Z" fill="white"/>
</svg>