<?xml version="1.0" encoding="UTF-8"?>
<svg width="64" height="64" viewBox="0 0 64 64" fill="none" xmlns="http://www.w3.org/2000/svg">
  <circle cx="32" cy="32" r="32" fill="#F3BA2F"/>
  <path d="M32 18.57L36.24 22.81L27.76 31.29L23.52 27.05L32 18.57ZM32 45.43L27.76 41.19L36.24 32.71L40.48 36.95L32 45.43ZM42.38 32L46.62 27.76L50.86 32L46.62 36.24L42.38 32ZM21.62 32L17.38 36.24L13.14 32L17.38 27.76L21.62 32ZM32 27.76L36.24 32L32 36.24L27.76 32L32 27.76Z" fill="white"/>
  <path d="M21.05 49.76V52.84H18.53V54.62H21.05V57.7H22.91V54.62H25.43V52.84H22.91V49.76H21.05ZM26.42 54.23C26.42 56.24 27.59 57.86 29.78 57.86C31.97 57.86 33.14 56.24 33.14 54.23C33.14 52.22 31.97 50.6 29.78 50.6C27.59 50.6 26.42 52.22 26.42 54.23ZM28.28 54.23C28.28 53.2 28.82 52.38 29.78 52.38C30.74 52.38 31.28 53.2 31.28 54.23C31.28 55.26 30.74 56.08 29.78 56.08C28.82 56.08 28.28 55.26 28.28 54.23ZM34.13 57.7H35.99V54.38C35.99 53.2 36.7 52.38 37.83 52.38C37.98 52.38 38.13 52.38 38.28 52.38V50.68C38.13 50.68 38.05 50.6 37.9 50.6C36.93 50.6 36.31 51.18 35.91 52.22H35.84V50.76H34.13V57.7ZM39.46 54.23C39.46 56.32 40.73 57.86 42.93 57.86C44.06 57.86 44.91 57.39 45.48 56.82L44.52 55.4C44.06 55.88 43.52 56.16 42.93 56.16C41.89 56.16 41.35 55.34 41.32 54.23H45.80V53.35C45.8 51.57 44.78 50.6 42.93 50.6C40.84 50.6 39.46 52.14 39.46 54.23ZM41.37 53.04C41.48 52.14 42.02 52.3 42.9 52.3C43.67 52.3 44.03 52.84 44.03 53.04H41.37ZM45.47 49.64V51.3H49.77V57.7H51.63V51.3H55.94V49.64H45.47Z" fill="white"/>
</svg>