<svg width="24" height="24" viewBox="0 0 24 24" fill="none" xmlns="http://www.w3.org/2000/svg">
  <path d="M7.41 10.09L12 5.5L16.59 10.09L19.16 7.52L12 0.36L4.84 7.52L7.41 10.09Z" fill="#F3BA2F"/>
  <path d="M4.84 16.48L7.41 13.91L4.84 11.34L2.27 13.91L4.84 16.48Z" fill="#F3BA2F"/>
  <path d="M16.59 13.91L12 18.5L7.41 13.91L4.84 16.48L12 23.64L19.16 16.48L16.59 13.91Z" fill="#F3BA2F"/>
  <path d="M21.73 13.91L19.16 11.34L16.59 13.91L19.16 16.48L21.73 13.91Z" fill="#F3BA2F"/>
  <path d="M14.02 12.0002L12.0001 10.0002L9.98 12.0002L12.0001 14.0002L14.02 12.0002Z" fill="#F3BA2F"/>
</svg>