<svg width="24" height="24" viewBox="0 0 24 24" fill="none" xmlns="http://www.w3.org/2000/svg">
  <circle cx="12" cy="12" r="12" fill="#F7931A"/>
  <path d="M16.3998 10.5584C16.6187 9.15698 15.5268 8.41257 14.0183 7.9322L14.4828 6.11623L13.3815 5.83667L12.9284 7.61163C12.6219 7.53705 12.3069 7.4667 11.9932 7.39693L12.45 5.60968L11.35 5.33012L10.8847 7.1461C10.63 7.08865 10.3809 7.03234 10.1405 6.97315L10.1418 6.96776L8.64758 6.59655L8.3499 7.79017C8.3499 7.79017 9.15665 7.97526 9.14057 7.98604C9.62695 8.10146 9.72169 8.41801 9.70905 8.66701L9.17366 10.7457C9.21047 10.7564 9.25923 10.7724 9.31222 10.7965C9.2674 10.7851 9.22015 10.7724 9.17077 10.7603L8.41027 13.636C8.34674 13.7804 8.18662 13.9968 7.84183 13.9166C7.8514 13.9313 7.049 13.7164 7.049 13.7164L6.5 15.0033L7.91392 15.356C8.19679 15.4252 8.4744 15.4977 8.74674 15.5662L8.2764 17.4075L9.37639 17.687L9.8413 15.8697C10.159 15.9536 10.4651 16.0295 10.7642 16.1C10.7642 16.1 10.7642 16.1 10.7642 16.0999L10.2986 17.9214L11.4003 18.201L11.8707 16.365C13.9123 16.759 15.4345 16.6078 16.1014 14.7332C16.6357 13.22 16.1198 12.3505 15.0606 11.7928C15.8246 11.6199 16.3869 11.0957 16.3998 10.5584ZM13.4977 13.9346C13.1153 15.4478 10.6177 14.6275 9.86243 14.4419L10.4953 11.9712C11.2506 12.1577 13.8992 12.3574 13.4977 13.9346ZM13.8805 10.542C13.5317 11.9237 11.4593 11.2152 10.8298 11.062L11.4072 8.83347C12.0368 8.98667 14.2458 9.09873 13.8805 10.542Z" fill="white"/>
</svg>