<?xml version="1.0" encoding="UTF-8"?>
<svg version="1.1" id="Layer_1" xmlns="http://www.w3.org/2000/svg" xmlns:xlink="http://www.w3.org/1999/xlink" x="0px" y="0px" viewBox="0 0 226.777 226.777" style="enable-background:new 0 0 226.777 226.777;" xml:space="preserve">
<style type="text/css">
	.st0{fill:#F7931A;}
	.st1{fill:#FFFFFF;}
</style>
<g>
	<path class="st0" d="M135.715,122.244c-2.614-1.31-6.553-3.275-6.553-3.275c0,0,0,0,0,0c0.164-0.655,0.655-2.773,0.819-3.275
		c0.164-0.655-0.164-1.31-0.655-1.31l-3.275-0.819c-0.164,0-0.328,0-0.328,0c-0.164,0-0.328,0.164-0.328,0.328l-0.495,2.127
		c-0.409-0.104-0.733-0.188-1.033-0.262c0,0-0.001,0-0.001,0l0.436-1.865c0-0.164,0-0.328-0.164-0.328
		c-0.164-0.164-0.328-0.164-0.328-0.164c0,0-0.954,0.221-1.146,0.268c-0.717,0.174-1.275,0.309-1.275,0.309
		c-0.164,0-0.164,0.164-0.328,0.164c-0.164,0.164-0.164,0.328-0.164,0.491l-0.472,1.974c-0.328-0.082-0.655-0.164-0.983-0.246
		c-0.983-0.246-1.965-0.492-2.948-0.655c0,0-0.001,0-0.001,0l0.655-2.456c0-0.164,0-0.328-0.164-0.328
		c-0.164-0.164-0.328-0.164-0.328-0.164l-3.439-0.819c-0.164,0-0.328,0-0.328,0c-0.164,0-0.328,0.164-0.328,0.328l-0.655,2.62
		h-0.001c-0.246-0.082-0.41-0.082-0.573-0.082c-0.328,0-0.655,0-0.983-0.082c-0.328,0-0.655-0.082-0.983-0.082
		c-0.819,0-1.637,0.082-2.456,0.164c-2.292,0.328-4.421,1.146-6.307,2.456c-1.965,1.31-3.603,3.275-4.585,5.404
		c-0.655,1.473-1.146,2.947-1.31,4.585c-0.164,1.637-0.164,3.275,0.164,4.912c0.328,1.637,0.983,3.275,1.965,4.748
		c0.983,1.473,2.292,2.62,3.767,3.603c0.655,0.491,1.473,0.819,2.292,1.146c0.819,0.328,1.637,0.491,2.456,0.655
		c1.146,0.246,2.456,0.491,3.767,0.819c1.144,0.272,2.317,0.554,3.418,0.847l-0.765,3.067c0,0.164,0,0.328,0.164,0.328
		c0.164,0.164,0.328,0.164,0.328,0.164l3.439,0.82c0.164,0,0.328,0,0.328,0c0.164,0,0.328-0.164,0.328-0.328l0.732-2.965
		c0.338,0.083,0.676,0.166,1.014,0.248c0.983,0.246,1.965,0.492,2.948,0.655v0.001l-0.655,2.62c0,0.164,0,0.328,0.164,0.491
		c0.164,0.164,0.328,0.164,0.328,0.164l3.439,0.819c0.164,0,0.328,0,0.328,0c0.164,0,0.328-0.164,0.328-0.328l0.602-2.536
		c0.204,0.047,0.408,0.093,0.613,0.139c0.354,0.079,0.708,0.157,1.062,0.234c0,0,0.1,0.028,0.256,0.069
		c0.155,0.042,0.365,0.097,0.606,0.159c0,0,0,0,0,0l-0.533,2.293c0,0.164,0,0.328,0.164,0.328c0.164,0.164,0.328,0.164,0.328,0.164
		l3.275,0.819c0.164,0,0.328,0,0.328,0c0.164,0,0.328-0.164,0.328-0.328l0.512-2.211c0.066,0.016,0.132,0.031,0.193,0.045
		c0.138,0.032,0.26,0.059,0.358,0.081c0.164,0.018,0.291,0.03,0.366,0.036c0.084,0.007,0.127,0.007,0.127,0.007
		c0.078,0,0.155-0.006,0.232-0.018c0,0,0.001,0,0.001,0c1.555-0.246,3.029-0.737,4.421-1.392c1.146-0.655,2.128-1.473,3.111-2.292
		c0.983-0.982,1.8-2.128,2.456-3.274c0.655-1.228,1.146-2.538,1.473-3.931c0.082-0.491,0.164-0.901,0.246-1.392
		c0.082-0.491,0.082-0.901,0.082-1.392c0.082-0.819,0-1.637-0.082-2.456c-0.082-0.983-0.328-1.965-0.655-2.947
		C139.482,126.829,137.844,124.209,135.715,122.244z M121.772,115.114h0.001c-0.001,0.002-0.001,0.003-0.002,0.005
		C121.771,115.117,121.772,115.116,121.772,115.114z M122.181,115.934c0,0,0-0.001,0-0.001
		C122.181,115.933,122.181,115.934,122.181,115.934z M122.181,115.933c0.083-0.323,0.192-0.776,0.258-1.047
		c0.246-1.064,0.327-1.064,1.392-0.819c0,0,1.064,0.245,1.883,0.451c0.819,0.205,1.146,0.287,1.146,0.287h0
		c0,0,0.246,0.286,0,1.104c-0.164,0.573-0.819,3.275-0.983,3.767c-0.164,0.491-0.327,0.819-1.31,0.573
		c-0.983-0.246-1.974-0.491-2.947-0.819C121.772,119.353,121.772,119.353,122.181,115.933z M116.613,128.478
		c-0.082,0.491-0.164,0.982-0.246,1.473c-0.082,0.491-0.082,0.982-0.082,1.473c0,0.491,0,0.901,0.082,1.392
		c0.082,0.328,0.164,0.655,0.328,0.983c0.328,0.819,0.901,1.637,1.719,2.128c0.901,0.655,1.965,0.982,3.029,1.146
		c0.901,0.082,1.883,0.082,2.784,0c0.655-0.082,1.31-0.246,1.965-0.491c0.082,0,0.164-0.082,0.246-0.082h0.001
		c0.245-0.082,0.409-0.164,0.573-0.246c0.164-0.082,0.327-0.164,0.491-0.246c0.245-0.164,0.409-0.246,0.573-0.328
		c-0.082,0.328-0.164,0.573-0.246,0.901c-0.246,0.982-0.328,0.982-1.392,0.737c-1.064-0.246-2.128-0.491-3.111-0.737
		c-0.982-0.246-0.982-0.246-0.737-1.228c0.082-0.328,0.164-0.655,0.246-0.982h-3.275c-0.082,0.328-0.164,0.655-0.246,0.982
		c-0.245,0.982-0.245,0.982-1.228,0.737c-1.065-0.246-2.128-0.491-3.111-0.737c-0.983-0.246-0.983-0.246-0.737-1.228
		c0.328-1.228,0.655-2.456,0.983-3.685c0.245-0.982,0.245-0.982,1.228-0.737c1.064,0.246,2.128,0.491,3.111,0.737
		c0.983,0.246,0.982,0.246,0.737,1.228c-0.082,0.328-0.164,0.655-0.246,0.982h3.275c0.082-0.328,0.164-0.655,0.246-0.982
		c0.246-0.982,0.246-0.982,1.229-0.737c0.245,0.082,0.573,0.164,0.819,0.164c-0.246,0.982-0.491,1.883-0.737,2.865
		c-0.082,0-0.082,0-0.164,0c-0.491,0.164-0.983,0.246-1.474,0.328c-0.573,0.082-1.064,0.082-1.637,0.082
		c-0.655,0-1.31-0.082-1.883-0.246c-0.491-0.164-0.983-0.328-1.31-0.655c-0.328-0.246-0.573-0.655-0.737-0.982
		c-0.164-0.328-0.246-0.655-0.246-0.982c0-0.328,0-0.655,0.082-0.983c0.082-0.409,0.164-0.819,0.246-1.228h0.001
		c0.246-0.938,0.512-1.956,0.833-3.17c0.082-0.246,0.164-0.573,0.246-0.819c0.164-0.491,0.328-0.901,0.573-1.31
		c0.246-0.328,0.573-0.655,0.901-0.819c0.409-0.246,0.901-0.328,1.31-0.409c0.491-0.082,0.983-0.082,1.474,0
		c0.491,0.082,0.983,0.164,1.474,0.328c0.083,0,0.164,0.082,0.246,0.082c-0.164,0.655-0.327,1.229-0.491,1.883
		c0,0-0.188-0.05-0.5-0.123c-0.246-0.057-0.573-0.12-0.9-0.165c-0.328-0.043-0.655-0.056-0.901-0.039
		c-0.246,0.018-0.409,0.067-0.409,0.067c-0.246,0.082-0.491,0.164-0.655,0.328c-0.246,0.164-0.409,0.328-0.491,0.573
		c-0.164,0.246-0.246,0.573-0.328,0.901c-0.082,0.328-0.164,0.655-0.246,0.983l-0.002,0.008c-0.008,0.031-0.016,0.063-0.024,0.095
		c-0.001,0.003-0.002,0.006-0.002,0.009c-0.007,0.029-0.014,0.058-0.022,0.088c-0.008,0.032-0.016,0.065-0.024,0.099
		c-0.017,0.069-0.035,0.14-0.053,0.213c-0.008,0.033-0.016,0.066-0.024,0.099C116.777,127.739,116.695,128.118,116.613,128.478z
		 M127.012,134.96L127.012,134.96c-0.001,0.002-0.001,0.004-0.002,0.006C127.011,134.964,127.012,134.962,127.012,134.96z
		 M127.34,136.023c0-0.001,0-0.001,0-0.002C127.34,136.022,127.34,136.023,127.34,136.023z M127.34,136.021
		c0.06-0.236,0.147-0.58,0.227-0.879c0.246-0.982,0.327-0.982,1.309-0.737c0,0,1.064,0.246,1.966,0.458
		c0.901,0.212,1.309,0.31,1.309,0.31h0c0,0,0.246,0.286,0,1.105c-0.246,0.819-0.491,1.883-0.737,2.701
		c-0.246,0.82-0.491,1.147-1.229,0.901c-0.737-0.246-1.473-0.491-2.21-0.737c-0.738-0.246-1.474-0.491-2.128-0.737
		C126.847,138.406,126.847,138.406,127.34,136.021z M134.078,128.969c-0.082,0.246-0.164,0.573-0.246,0.819
		c-0.164,0.655-0.409,1.228-0.737,1.801c-0.328,0.573-0.737,1.146-1.228,1.555c-0.401,0.401-0.872,0.732-1.383,0.977
		c-0.056-0.014-0.112-0.029-0.169-0.044c0.328-1.146,0.573-2.292,0.901-3.439c0.245-0.901,0.245-0.982,1.146-0.737
		c0.245,0.082,0.491,0.082,0.655,0.164c-0.082-0.164-0.164-0.246-0.246-0.409c-0.164-0.246-0.328-0.491-0.573-0.655
		c-0.246-0.246-0.491-0.409-0.737-0.573c-0.491-0.246-0.983-0.491-1.556-0.655c-0.082,0-0.164-0.082-0.245-0.082
		c0.246-0.982,0.491-1.883,0.737-2.865c0.082,0,0.164,0.082,0.246,0.082c0.491,0.164,0.901,0.328,1.31,0.573
		c0.409,0.246,0.737,0.573,1.064,0.901c0.328,0.328,0.573,0.737,0.819,1.146C133.914,127.985,134.078,128.479,134.078,128.969z"/>
	<g>
		<path class="st0" d="M113.4,0C50.8,0,0,50.8,0,113.4s50.8,113.4,113.4,113.4c62.6,0,113.4-50.8,113.4-113.4S176,0,113.4,0z
			 M161.3,125.7c0.3,2.1,0.3,4,0.4,6c0,1-0.1,1.9-0.2,2.9c-0.1,1-0.2,2-0.4,2.9c-0.7,3.9-2.1,7.7-4.1,11.1
			c-1.9,3.4-4.4,6.6-7.3,9.3c-2.9,2.8-6.2,5.1-9.9,6.9c-3.6,1.8-7.5,3.1-11.5,3.7c-0.4,0.1-0.6,0.1-1,0.1c-0.3,0-1.1,0-2.4-0.2
			c-1.3-0.2-3.2-0.5-5.9-1.1c-2.7-0.6-6.2-1.5-10.6-2.7c-4.5-1.1-8.9-2.2-13.4-3.4c0,0,0,0,0,0c-0.8-0.2-1.4-0.4-1.8-0.4
			c-0.4-0.1-0.6-0.2-0.7-0.2c-0.1,0-0.1,0-0.1,0l-1.4,5.6c0,0,0,0,0,0c-0.2,0.7-0.8,1.1-1.5,1.1c-0.1,0-0.3,0-0.4-0.1l-9-2.3
			c-0.6-0.2-1-0.7-1-1.3c0-0.1,0-0.2,0-0.4c0,0,0,0,0,0l1.6-6.5c-2.7-0.7-5.4-1.3-8.1-2c0,0,0,0,0,0l-1.9,7.5c0,0,0,0,0,0
			c-0.2,0.7-0.8,1.1-1.5,1.1c-0.1,0-0.3,0-0.4-0.1l-9-2.3c-0.6-0.2-1-0.7-1-1.3c0-0.1,0-0.2,0-0.4c0,0,0,0,0,0l1.9-7.8
			c-3-0.8-5.8-1.5-8.4-2.2c-0.5-0.1-0.9-0.2-1.2-0.3c0,0-0.1,0-0.1,0l-1.7,6.9c0,0,0,0,0,0c-0.2,0.7-0.8,1.1-1.5,1.1
			c-0.1,0-0.3,0-0.4-0.1l-9-2.3c-0.6-0.2-1-0.7-1-1.3c0-0.1,0-0.2,0-0.4c0,0,0,0,0,0l1.7-6.8c-0.9-0.2-1.6-0.4-2.2-0.5
			c-0.7-0.2-1.3-0.3-1.8-0.4c-1-0.2-1.8-0.4-2.4-0.6c-0.6-0.1-1-0.2-1.1-0.3c-0.1,0-0.2-0.1-0.2-0.1l-1.2,5c0,0,0,0,0,0
			c-0.2,0.7-0.8,1.1-1.5,1.1c-0.1,0-0.3,0-0.4-0.1l-8.6-2.2c-0.6-0.2-1-0.7-1-1.3c0-0.1,0-0.2,0-0.4c0,0,0,0,0,0l1.3-5.4
			c-1.8-1-3.5-2.1-5.1-3.3c-4-2.7-7.2-6-9.9-9.7c-2.7-3.7-4.5-7.8-5.7-12.2c-0.9-3.3-1.3-6.7-1.3-10.1c0-3.4,0.5-6.8,1.4-10.1
			c1.1-4.3,2.9-8.5,5.6-12.3c2.6-3.7,5.9-7.1,9.9-9.8c2-1.4,4.2-2.6,6.5-3.6c-0.1-0.1-0.1-0.2-0.1-0.3l1.3-5.2c0,0,0,0,0,0
			c0.2-0.7,0.8-1.1,1.5-1.1c0.1,0,0.3,0,0.4,0.1l8.6,2.2c0.6,0.2,1,0.7,1,1.3c0,0.1,0,0.2,0,0.4c0,0,0,0,0,0l-1.2,4.8
			c0.8,0.1,1.7,0.2,2.5,0.4c1.4,0.2,2.8,0.5,4.2,0.8c0.1,0,0.3,0.1,0.4,0.1l-1.6,6.5c0,0,0,0,0,0c-0.2,0.7-0.8,1.1-1.5,1.1
			c-0.1,0-0.3,0-0.4-0.1l-9-2.3c-0.6-0.2-1-0.7-1-1.3c0-0.1,0-0.2,0-0.4c0,0,0,0,0,0l1.7-6.6c-0.8-0.2-1.5-0.3-2.3-0.5
			c-0.6-0.1-1.3-0.2-2-0.2c-0.9-0.1-1.7-0.1-2.6-0.1c-0.9,0-1.8,0.1-2.6,0.2c-2.2,0.3-4.3,0.9-6.2,1.9c-1.9,1-3.5,2.3-4.9,3.9
			c-1.4,1.6-2.4,3.4-3.1,5.4c-0.7,2-1.2,4.2-1.3,6.5c-0.1,2.3,0.1,4.5,0.6,6.7c0.5,2.2,1.4,4.3,2.5,6.2c1.2,1.9,2.7,3.6,4.5,5
			c1.8,1.4,3.8,2.5,6,3.3c2.2,0.8,4.6,1.3,7.1,1.5c2.5,0.2,5.1,0.1,7.8-0.2c0,0,0,0,0,0c0.1,0,0.2,0,0.3-0.1c0,0,0,0,0,0
			c2.3-0.5,4.6-1.3,6.8-2.3c2.2-1,4.2-2.3,6.1-3.8c2.3-1.9,4.3-4.1,5.9-6.7c1.6-2.6,2.8-5.4,3.5-8.4c0.4-1.5,0.6-3.1,0.7-4.6
			c0.1-1.6,0-3.1-0.2-4.7c-0.2-1.5-0.5-3.1-1-4.6c-0.5-1.5-1.2-3-2-4.3c-0.8-1.4-1.8-2.6-2.9-3.8c-1.1-1.2-2.4-2.3-3.8-3.2
			c-2.7-1.9-5.8-3.3-9.2-4.2c0,0-0.1,0-0.1,0c-0.1,0-0.1,0-0.2-0.1c0,0,0,0,0,0c-1-0.3-2-0.5-3-0.7c0.3-1.1,0.5-2,0.7-2.9
			c0.2-0.8,0.4-1.6,0.6-2.3c0.5-2,0.5-2,3.6-1.2c4.2,1,8.3,2.1,12.5,3.1c0,0,0,0,0.1,0c1.3,0.3,2.4,0.6,3.3,0.8
			c0.9,0.2,1.7,0.4,2.4,0.6c1,0.2,1.8,0.4,2.4,0.6c0.6,0.1,1,0.2,1.1,0.3c0.1,0,0.2,0.1,0.2,0.1l1.2-5c0,0,0,0,0,0
			c0.2-0.7,0.8-1.1,1.5-1.1c0.1,0,0.3,0,0.4,0.1l8.6,2.2c0.6,0.2,1,0.7,1,1.3c0,0.1,0,0.2,0,0.4c0,0,0,0,0,0l-1.3,5.2
			c-0.2,0.9-0.8,1.3-1.8,1.2c-4.1-0.8-6.1-1.2-6.1-1.2c-3.1-0.8-3.1-0.8-3.6,2.3c-0.6,3.1-1.2,6.2-1.9,9.3
			c-0.7,3.1-1.3,6.2-1.9,9.3c-0.6,3.1-1.4,3.1-4.5,2.3c-0.5-0.1-1-0.3-1.6-0.4c0.4-1.6,0.8-3.3,1.2-4.9c0.7-3.1,0.7-3.1,3.8-2.3
			c3.1,0.8,3.1,0.8,2.4-2.4c-0.4-1.7-0.4-1.7,1.4-2.3c1.7-0.6,2.8-1.6,3.3-3.1c0.5-1.5,0-2.6-1.3-3.4c-0.8-0.4-1.7-0.7-2.6-0.9
			c-0.9-0.2-2-0.5-3.3-0.8c-0.2,0-0.3-0.1-0.5-0.1c0,0,0,0-0.1,0c-0.2-0.1-0.5-0.1-0.8-0.2c-3.1-0.8-3.1-0.8-3.8,2.3
			c-0.3,1.4-0.7,2.7-1,4.1c-0.3,1.4-0.7,2.8-1.1,4.2c-0.8,3.1-0.8,3.1-3.8,2.4c-3.1-0.8-6.2-1.5-9.3-2.3c-3.1-0.8-3.1-0.8-2.5,2.4
			c0.2,0.7,0.3,1.5,0.5,2.2c0.7,3.1,0.7,3.1,3.8,3.9c3.1,0.8,6.2,1.5,9.3,2.3c3.1,0.8,3.1,0.8,2.5-2.4c-0.2-0.7-0.3-1.5-0.5-2.2
			c-0.7-3.1-0.7-3.1,2.4-3.9c3.1-0.8,3.1-0.8,3.8,2.4c0.3,1.4,0.7,2.7,1,4.1c0.3,1.4,0.7,2.8,1.1,4.2c0.8,3.1,0.8,3.1-2.4,3.9
			c-3.1,0.8-6.2,1.5-9.3,2.3c-3.1,0.8-3.1,0.8-2.5,3.9c0.2,0.7,0.3,1.5,0.5,2.2c0.7,3.1,0.7,3.1,3.8,2.3c3.1-0.8,6.2-1.5,9.3-2.3
			c3.1-0.8,3.1-0.8,2.4-3.9c-0.2-0.7-0.3-1.5-0.5-2.2c-0.7-3.1-0.7-3.1,2.4-3.9c0,0,0,0,0,0c0.6-0.1,1.1-0.3,1.6-0.4
			c-0.2,0.8-0.4,1.5-0.6,2.3c-0.2,0.8-0.4,1.7-0.7,2.5c-0.5,1.9-1.2,3.7-2.1,5.3c-0.9,1.6-2,3-3.3,4.2c-1.5,1.3-3.2,2.2-5.1,2.9
			c-3.8,1.2-8,1.3-12.1,0.4c-2-0.5-3.8-1.2-5.5-2.2c-1.6-1-3-2.2-4.1-3.7c-1.1-1.5-1.9-3.2-2.4-5.1c-0.5-1.9-0.7-3.9-0.7-6.1
			c0-2.2,0.3-4.3,0.9-6.3c0.6-2,1.4-3.9,2.5-5.6c1.1-1.7,2.5-3.2,4.1-4.5c1.6-1.3,3.6-2.3,5.8-3c1.1-0.3,2.2-0.6,3.3-0.7
			c1.1-0.1,2.3-0.2,3.5-0.1c1.2,0.1,2.4,0.3,3.6,0.6c1.2,0.3,2.4,0.6,3.6,1.1c0.1,0,0.1,0,0.2,0.1c0,0,0,0,0,0
			c0.2,0.1,0.5,0.2,0.7,0.2c-0.3,1.1-0.5,2-0.7,2.9c-0.2,0.8-0.4,1.6-0.6,2.3c-0.7,2.7-0.7,2.7-3.4,2c-0.7-0.2-1.4-0.4-2.1-0.5
			c-0.9-0.2-1.9-0.2-2.9-0.2c-1,0.1-2,0.3-3,0.6c-1,0.4-1.8,0.9-2.5,1.7c-0.6,0.7-1.1,1.6-1.5,2.6c-0.4,1-0.6,2.1-0.7,3.3
			c-0.1,1.2-0.1,2.4,0.1,3.5c0.2,1.2,0.5,2.2,1,3.2c0.5,1,1.2,1.8,2,2.5c0.8,0.7,1.8,1.2,2.9,1.6c1.1,0.3,2.3,0.5,3.6,0.5
			c1.3,0,2.6-0.2,3.9-0.5c0.3-0.1,0.5-0.1,0.8-0.2c0.3-0.1,0.5-0.2,0.7-0.3c0.3-0.1,0.6-0.2,0.8-0.3c0.3-0.1,0.5-0.2,0.8-0.3
			c-0.2,0.8-0.4,1.5-0.6,2.2c-0.7,2.7-0.8,2.7-3.5,2c-3.1-0.8-6.2-1.5-9.3-2.3c-3.1-0.8-3.1-0.8-2.4-3.9c0.2-0.7,0.3-1.5,0.5-2.2
			c0.7-3.1,0.7-3.1-2.4-3.9c-3.1-0.8-6.2-1.6-9.3-2.3c-3.1-0.8-3.1-0.8-3.8,2.3c-0.8,3.6-1.7,7.2-2.6,10.7c-0.9,3.6-1.8,7.2-2.6,10.8
			c-0.8,3.6-0.8,3.6,2.8,4.4c3.6,0.9,7.2,1.8,10.8,2.7c3.6,0.9,7.2,1.7,10.8,2.6c3.6,0.9,7.2,1.8,10.8,2.7c3.6,0.9,3.6,0.9,4.4-2.8
			c0.9-3.8,1.9-7.5,2.9-11.3c0.9-3.8,1.9-7.6,2.9-11.4c0.9-3.8,0.9-3.8-2.8-4.7c-3.8-0.9-3.8-0.9-4.7,2.8c-0.2,0.9-0.4,1.8-0.7,2.7
			c-0.7,2.7-0.7,2.7-3.4,2c-0.7-0.2-1.5-0.3-2.2-0.5c-0.1,0-0.1,0-0.2-0.1c0.2-0.8,0.4-1.5,0.6-2.3c0.6-2.7,1.3-5.3,1.9-8
			c0.7-2.7,0.7-2.7,3.4-2c3.1,0.8,6.2,1.5,9.3,2.3c3.1,0.8,3.1,0.8,2.4-2.4c-0.6-3.1-0.6-3.1,2.5-3.9c3.1-0.8,6.2-1.5,9.3-2.3
			c3.1-0.8,3.1-0.8,3.8,2.3c0.6,3.1,1.2,6.2,1.9,9.3c0.6,3.1,1.2,6.2,1.9,9.3c0.6,3.1,0.6,3.1-2.5,3.9c-3.1,0.8-6.2,1.5-9.3,2.3
			c-3.1,0.8-3.1,0.8-3.8-2.3c-0.6-3.1-1.2-6.2-1.9-9.3c-0.6-3.1-1.3-6.2-1.9-9.3c-0.6-3.1-0.6-3.1,2.5-3.9c0.8-0.2,1.6-0.4,2.4-0.6
			c-0.2,0.9-0.4,1.8-0.7,2.7c-0.7,2.7-0.7,2.7,2,3.4c0.7,0.2,1.4,0.3,2.1,0.5c0,0,0,0,0,0c0.1,0.1,0.3,0.1,0.4,0.1c0,0,0,0,0,0
			c0,0,0.1,0,0.1,0c0,0,0.1,0,0.1,0c0.5,0.3,0.7,0.8,0.4,1.5c-0.2,0.7-0.4,1.4-0.6,2.1c-0.2,0.7-0.4,1.4-0.6,2.1
			c-0.7,2.7-0.7,2.7-3.4,2c-3.1-0.8-6.2-1.6-9.3-2.3c-3.1-0.8-3.1-0.8-2.4,2.3c0.6,3.1,1.2,6.2,1.9,9.3c0.6,3.1,1.2,6.2,1.9,9.3
			c0.6,3.1,0.6,3.1-2.5,3.9c-3.1,0.8-6.2,1.5-9.3,2.3c-3.1,0.8-3.1,0.8-3.8-2.4c-0.6-3.1-1.3-6.2-1.9-9.3c-0.6-3.1-1.3-6.2-1.9-9.3
			c-0.6-3.1-0.6-3.1,2.5-3.9c3.1-0.8,6.2-1.5,9.3-2.3c3.1-0.8,3.1-0.8,3.8,2.4c0.2,0.9,0.4,1.9,0.6,2.8c0.7,2.7,0.8,2.7,3.5,2
			c2.7-0.7,2.7-0.7,3.4-3.4c1.2-4.7,2.4-9.4,3.6-14.1c0.9-3.8,0.9-3.8-2.8-4.7c-3.8-0.9-3.8-0.9-4.7,2.8c-0.2,0.9-0.4,1.8-0.7,2.7
			c-0.2,0.9-0.4,1.8-0.7,2.7c-1.1,4.5-1.1,4.5-5.7,3.4c-4.5-1.1-4.5-1.1-5.6,3.4c-0.2,0.9-0.4,1.8-0.7,2.7c-0.2,0.9-0.4,1.8-0.7,2.7
			c-0.9,3.8-0.9,3.8,2.8,4.7c4.5,1.1,9,2.3,13.5,3.4c4.5,1.1,9,2.3,13.5,3.4c4.5,1.1,4.5,1.1,5.6-3.4c0.2-0.9,0.4-1.8,0.7-2.7
			c0.2-0.9,0.4-1.8,0.7-2.7c0.9-3.8,0.9-3.8-2.8-4.7c-1.9-0.5-3.8-0.9-5.6-1.4c0,0,0,0,0,0c-0.3-0.1-0.5-0.1-0.7-0.2
			c-0.2-0.1-0.4-0.1-0.5-0.1c0,0-0.1,0-0.1,0c0.2-0.7,0.4-1.4,0.6-2.1c0.2-0.9,0.5-1.9,0.8-2.8c1.5,0.3,2.3,0.5,2.3,0.5
			c1.1,0.5,2.1,1.2,3,2c0.9,0.8,1.7,1.8,2.3,2.9c0.6,1.1,1.1,2.4,1.4,3.8c0.3,1.4,0.4,2.9,0.4,4.5c0,1.6-0.2,3.1-0.5,4.5
			c-0.3,1.4-0.7,2.8-1.3,4.1c-0.6,1.3-1.2,2.5-2,3.7c-0.9,1.4-1.9,2.7-3.2,3.9c-1.2,1.2-2.6,2.3-4,3.3c-1.5,1-3.1,1.8-4.9,2.5
			c-2.2,0.8-4.5,1.3-6.9,1.5c-2.4,0.2-4.9,0-7.4-0.5c-1.3-0.3-2.5-0.6-3.6-1.1c-1.2-0.4-2.2-0.9-3.2-1.5c-1-0.6-1.9-1.3-2.7-2.1
			c-0.8-0.8-1.5-1.7-2.1-2.7c-0.6-1-1-2.1-1.4-3.3c-0.3-1.2-0.5-2.5-0.5-3.8c0-1.4,0.2-2.8,0.5-4.1c0.3-1.3,0.7-2.6,1.2-3.9
			c0.3-0.7,0.5-1.4,0.9-2c0,0,0-0.1,0-0.1c0.1-0.2,0.2-0.4,0.3-0.6c0.1-0.2,0.2-0.4,0.3-0.6c0.1-0.1,0.1-0.3,0.2-0.4
			c0.1-0.2,0.2-0.3,0.3-0.5c0.7-1.2,1.5-2.4,2.4-3.4c1.1-1.3,2.4-2.5,3.9-3.4c1.5-0.9,3.2-1.7,5.1-2.2c1.9-0.5,4-0.7,6.2-0.6
			c2.2,0.1,4.5,0.5,6.8,1.3c0,0,0,0,0,0c0.2,0.1,0.4,0.1,0.6,0.2c0,0,0,0,0,0c0.6,0.2,1.1,0.3,1.7,0.5c-0.4,1.6-0.8,3.3-1.2,4.9
			c-0.7,3.1-0.7,3.1-3.7,2.3c-0.8-0.2-1.5-0.3-2.3-0.4c-1.6-0.2-3.1-0.1-4.4,0.3c-1.4,0.4-2.7,1-3.8,1.9c-1.1,0.9-2,1.9-2.7,3.2
			c-0.7,1.3-1.2,2.7-1.5,4.2c-0.3,1.5-0.4,3.1-0.2,4.8c0.2,1.7,0.6,3.3,1.3,4.7c0.7,1.5,1.6,2.8,2.7,3.9c1.2,1.1,2.5,1.9,4.1,2.5
			c1.6,0.6,3.3,0.9,5.1,0.9c2.4,0,4.7-0.4,6.9-1.1c2.2-0.7,4.3-1.8,6.2-3.2c1.9-1.4,3.7-3.1,5.3-5.2c1.6-2.1,2.8-4.5,3.8-7.3
			c0.5-1.5,0.9-3.1,1.2-4.8c0.3-1.7,0.5-3.5,0.6-5.4c0.1-1.9,0-3.9-0.1-5.9C162.3,131.6,161.9,128.7,161.3,125.7z"/>
	</g>
</g>
</svg>