<svg xmlns="http://www.w3.org/2000/svg" width="1200" height="800" viewBox="0 0 1200 800">
  <!-- Dark background -->
  <rect width="100%" height="100%" fill="#0A0A0A" />
  
  <!-- Grid lines -->
  <g stroke="#1A1A1A" stroke-width="1">
    <g id="vertical-lines">
      <line x1="100" y1="0" x2="100" y2="800" />
      <line x1="200" y1="0" x2="200" y2="800" />
      <line x1="300" y1="0" x2="300" y2="800" />
      <line x1="400" y1="0" x2="400" y2="800" />
      <line x1="500" y1="0" x2="500" y2="800" />
      <line x1="600" y1="0" x2="600" y2="800" />
      <line x1="700" y1="0" x2="700" y2="800" />
      <line x1="800" y1="0" x2="800" y2="800" />
      <line x1="900" y1="0" x2="900" y2="800" />
      <line x1="1000" y1="0" x2="1000" y2="800" />
      <line x1="1100" y1="0" x2="1100" y2="800" />
    </g>
    
    <g id="horizontal-lines">
      <line x1="0" y1="100" x2="1200" y2="100" />
      <line x1="0" y1="200" x2="1200" y2="200" />
      <line x1="0" y1="300" x2="1200" y2="300" />
      <line x1="0" y1="400" x2="1200" y2="400" />
      <line x1="0" y1="500" x2="1200" y2="500" />
      <line x1="0" y1="600" x2="1200" y2="600" />
      <line x1="0" y1="700" x2="1200" y2="700" />
    </g>
  </g>
  
  <!-- Candlestick chart -->
  <g transform="translate(150, 150)" stroke-linecap="round">
    <g stroke="#00FF88" fill="#00FF88" opacity="0.8">
      <rect x="0" y="100" width="20" height="80" />
      <line x1="10" y1="80" x2="10" y2="100" />
      <line x1="10" y1="180" x2="10" y2="200" />
    </g>
    
    <g stroke="#FF3333" fill="#FF3333" opacity="0.8">
      <rect x="30" y="90" width="20" height="60" />
      <line x1="40" y1="70" x2="40" y2="90" />
      <line x1="40" y1="150" x2="40" y2="180" />
    </g>
    
    <g stroke="#00FF88" fill="#00FF88" opacity="0.8">
      <rect x="60" y="120" width="20" height="40" />
      <line x1="70" y1="100" x2="70" y2="120" />
      <line x1="70" y1="160" x2="70" y2="190" />
    </g>
    
    <g stroke="#00FF88" fill="#00FF88" opacity="0.8">
      <rect x="90" y="80" width="20" height="90" />
      <line x1="100" y1="60" x2="100" y2="80" />
      <line x1="100" y1="170" x2="100" y2="200" />
    </g>
    
    <g stroke="#FF3333" fill="#FF3333" opacity="0.8">
      <rect x="120" y="110" width="20" height="70" />
      <line x1="130" y1="80" x2="130" y2="110" />
      <line x1="130" y1="180" x2="130" y2="210" />
    </g>
    
    <g stroke="#00FF88" fill="#00FF88" opacity="0.8">
      <rect x="150" y="100" width="20" height="50" />
      <line x1="160" y1="80" x2="160" y2="100" />
      <line x1="160" y1="150" x2="160" y2="180" />
    </g>
  </g>
  
  <!-- Blockchain nodes -->
  <g transform="translate(600, 200)">
    <g id="node1">
      <rect x="0" y="0" width="60" height="60" rx="10" fill="#1A1A1A" stroke="#00D4FF" stroke-width="2" />
      <text x="30" y="35" fill="#00D4FF" font-family="monospace" text-anchor="middle" alignment-baseline="middle">01</text>
    </g>
    
    <g id="node2" transform="translate(120, 80)">
      <rect x="0" y="0" width="60" height="60" rx="10" fill="#1A1A1A" stroke="#00D4FF" stroke-width="2" />
      <text x="30" y="35" fill="#00D4FF" font-family="monospace" text-anchor="middle" alignment-baseline="middle">02</text>
    </g>
    
    <g id="node3" transform="translate(240, 0)">
      <rect x="0" y="0" width="60" height="60" rx="10" fill="#1A1A1A" stroke="#00D4FF" stroke-width="2" />
      <text x="30" y="35" fill="#00D4FF" font-family="monospace" text-anchor="middle" alignment-baseline="middle">03</text>
    </g>
    
    <g id="node4" transform="translate(360, 80)">
      <rect x="0" y="0" width="60" height="60" rx="10" fill="#1A1A1A" stroke="#00D4FF" stroke-width="2" />
      <text x="30" y="35" fill="#00D4FF" font-family="monospace" text-anchor="middle" alignment-baseline="middle">04</text>
    </g>
    
    <g id="node5" transform="translate(480, 0)">
      <rect x="0" y="0" width="60" height="60" rx="10" fill="#1A1A1A" stroke="#00FF88" stroke-width="2" />
      <text x="30" y="35" fill="#00FF88" font-family="monospace" text-anchor="middle" alignment-baseline="middle">05</text>
    </g>
    
    <!-- Connection lines -->
    <line x1="60" y1="30" x2="120" y2="110" stroke="#00D4FF" stroke-width="2" opacity="0.6" />
    <line x1="180" y1="110" x2="240" y2="30" stroke="#00D4FF" stroke-width="2" opacity="0.6" />
    <line x1="300" y1="30" x2="360" y2="110" stroke="#00D4FF" stroke-width="2" opacity="0.6" />
    <line x1="420" y1="110" x2="480" y2="30" stroke="#00D4FF" stroke-width="2" opacity="0.6" />
  </g>
  
  <!-- Ninja stars scattered around -->
  <g fill="#00FF88" opacity="0.2">
    <path transform="translate(100, 500) rotate(15) scale(0.5)" d="M0 -20L10 0L0 20L-10 0Z" />
    <path transform="translate(300, 650) rotate(45) scale(0.7)" d="M0 -20L10 0L0 20L-10 0Z" />
    <path transform="translate(800, 100) rotate(30) scale(0.6)" d="M0 -20L10 0L0 20L-10 0Z" />
    <path transform="translate(950, 300) rotate(60) scale(0.5)" d="M0 -20L10 0L0 20L-10 0Z" />
    <path transform="translate(1050, 550) rotate(75) scale(0.7)" d="M0 -20L10 0L0 20L-10 0Z" />
  </g>
</svg>
