<svg xmlns="http://www.w3.org/2000/svg" viewBox="0 0 512 512" width="100" height="100">
  <!-- Ninja star/shuriken -->
  <path fill="#00FF88" d="M256 64L320 192L448 256L320 320L256 448L192 320L64 256L192 192L256 64Z" />
  
  <!-- Crypto symbol (Bitcoin-inspired) -->
  <circle fill="none" stroke="#00D4FF" stroke-width="16" cx="256" cy="256" r="96" />
  <path fill="none" stroke="#00D4FF" stroke-width="16" d="M304 208C304 194.7 293.3 184 280 184H232V240H280C293.3 240 304 229.3 304 216V208Z" />
  <path fill="none" stroke="#00D4FF" stroke-width="16" d="M304 296C304 282.7 293.3 272 280 272H232V328H280C293.3 328 304 317.3 304 304V296Z" />
  <line stroke="#00D4FF" stroke-width="16" x1="232" y1="184" x2="232" y2="160" />
  <line stroke="#00D4FF" stroke-width="16" x1="280" y1="184" x2="280" y2="160" />
  <line stroke="#00D4FF" stroke-width="16" x1="232" y1="328" x2="232" y2="352" />
  <line stroke="#00D4FF" stroke-width="16" x1="280" y1="328" x2="280" y2="352" />
</svg>
