<svg xmlns="http://www.w3.org/2000/svg" viewBox="0 0 512 512">
  <circle cx="256" cy="256" r="256" fill="#0B0E36"/>
  <path d="M145.5 155.8l66.8 100.3L279.1 156l-37-0.2 33.4-38.8 47.4 0.2c7.4 0.1 13.4 6 13.4 13.4v106.8l25.2 38.1 34.4-78c4.8-10.8 17.3-15.8 28.2-11l-76.5 171.6c-5.9 13.3-24.5 13.3-30.4 0l-28.4-63.7v95.5c0 7.4-6 13.4-13.4 13.4h-33.2c-7.4 0-13.4-6-13.4-13.4V310.2l-83.9 83.9v-42.6l84-84-83.8-126-38.9 88.4c-4.8 10.8-17.3 15.8-28.2 11l76.5-171.6c5.9-13.3 24.5-13.3 30.4 0l24.8 55.5h25.3z" fill="#05c19e"/>
</svg>