<?xml version="1.0" encoding="UTF-8"?>
<svg width="512px" height="512px" viewBox="0 0 512 512" version="1.1" xmlns="http://www.w3.org/2000/svg">
    <title>TRON TRC-20</title>
    <g stroke="none" stroke-width="1" fill="none" fill-rule="evenodd">
        <circle fill="#EB0029" cx="256" cy="256" r="256"></circle>
        <path d="M367.334,174.462 C296.178,104.482 181.554,127.338 181.554,127.338 L181.514,127.354 C181.118,127.414 135.058,133.322 143.462,214.334 C148.542,265.214 189.202,350.19 189.202,350.19 C189.202,350.19 189.822,352.838 191.866,352.326 C193.89,351.814 193.698,349.042 193.698,349.042 C193.698,349.042 185.254,254.35 240.366,233.55 L301.574,370.498 C301.574,370.498 303.47,374.09 306.15,372.67 C308.854,371.262 306.574,366.762 306.574,366.762 L255.59,235.286 C255.59,235.286 341.234,210.694 354.538,262.158 L323.35,347.566 C323.35,347.566 322.454,350.242 323.926,350.93 C325.398,351.618 326.694,348.662 326.694,348.662 L369.43,214.718 C369.43,214.718 384.742,192.662 367.334,174.462" fill="#FFFFFF" fill-rule="nonzero"></path>
        <!-- Path-based text to avoid font-family issues -->
        <g transform="translate(128, 438)" fill="#FFFFFF">
            <path d="M7.4-25.5h4.8v21.2h13.1V0H7.4V-25.5z"></path>
            <path d="M37.8-25.5v9.7c1.6-2.7,4-4.1,7.2-4.1c2.7,0,4.8,0.9,6.4,2.8c1.6,1.9,2.3,4.5,2.3,7.9V0h-4.7v-8.7c0-2.3-0.4-4.1-1.3-5.3c-0.9-1.2-2.1-1.8-3.8-1.8c-2.2,0-4.1,1.4-5.6,4.2V0h-4.7v-25.5H37.8z"></path>
            <path d="M69.5-19.9c1.7,0,3.3,0.3,4.6,0.9v4.1c-1.5-0.8-3-1.3-4.7-1.3c-1.9,0-3.5,0.7-4.6,2.1c-1.1,1.4-1.7,3.3-1.7,5.7c0,2.5,0.6,4.5,1.8,5.9c1.2,1.4,2.8,2.1,4.9,2.1c1.7,0,3.2-0.4,4.6-1.2v4c-1.2,0.5-2.8,0.8-4.8,0.8c-3.4,0-6.1-1.1-8.2-3.3c-2.1-2.2-3.1-5.2-3.1-8.8c0-3.8,1.1-6.8,3.2-9C63.6-21.4,66.3-22.5,69.5-19.9z"></path>
            <path d="M89.9-20.5c0.6,0,1.1,0,1.4,0.1v4.5c-0.5-0.1-1-0.1-1.5-0.1c-2,0-3.6,0.6-4.9,1.7c-1.2,1.1-1.8,2.7-1.8,4.7V0h-4.7v-19.4h4.7v3.8C84.6-18.5,87-20.5,89.9-20.5z"></path>
            <path d="M105.3-5.3c0,1.9-0.8,3.3-2.3,4.4c-1.5,1-3.6,1.5-6.2,1.5c-2.3,0-4.4-0.4-6.2-1.3v-4.4c2.2,1.3,4.3,1.9,6.2,1.9c2.5,0,3.7-0.7,3.7-2.1c0-0.5-0.2-0.9-0.5-1.2c-0.3-0.3-0.9-0.7-1.7-1c-0.8-0.4-1.7-0.7-2.7-1.1c-2.9-1.1-4.3-2.9-4.3-5.4c0-1.7,0.7-3.1,2.1-4.1c1.4-1,3.3-1.5,5.7-1.5c2.1,0,4.1,0.4,6,1.3v4.2c-1.8-1-3.7-1.6-5.6-1.6c-2.1,0-3.1,0.6-3.1,1.9c0,0.6,0.3,1.1,0.9,1.5c0.6,0.4,1.9,0.9,3.8,1.7c1.9,0.7,3.3,1.6,4.1,2.5C104.9-7.9,105.3-6.8,105.3-5.3z"></path>
            <path d="M120-19.9v3.9c-1.6-0.7-3.3-1.1-5.2-1.1c-2.1,0-3.8,0.7-5.1,2.2c-1.3,1.5-1.9,3.4-1.9,5.9c0,2.6,0.7,4.6,2,6.1c1.3,1.5,3.1,2.2,5.3,2.2c1.9,0,3.7-0.4,5.2-1.2v4c-1.5,0.6-3.4,0.9-5.7,0.9c-3.4,0-6.2-1.1-8.2-3.3c-2.1-2.2-3.1-5.1-3.1-8.8c0-3.6,1-6.5,3.1-8.8c2.1-2.2,4.8-3.4,8.2-3.4C116.6-20.9,118.4-20.6,120-19.9z"></path>
            <path d="M138.9-5.3c0,1.9-0.8,3.3-2.3,4.4c-1.5,1-3.6,1.5-6.2,1.5c-2.3,0-4.4-0.4-6.2-1.3v-4.4c2.2,1.3,4.3,1.9,6.2,1.9c2.5,0,3.7-0.7,3.7-2.1c0-0.5-0.2-0.9-0.5-1.2c-0.3-0.3-0.9-0.7-1.7-1c-0.8-0.4-1.7-0.7-2.7-1.1c-2.9-1.1-4.3-2.9-4.3-5.4c0-1.7,0.7-3.1,2.1-4.1c1.4-1,3.3-1.5,5.7-1.5c2.1,0,4.1,0.4,6,1.3v4.2c-1.8-1-3.7-1.6-5.6-1.6c-2.1,0-3.1,0.6-3.1,1.9c0,0.6,0.3,1.1,0.9,1.5c0.6,0.4,1.9,0.9,3.8,1.7c1.9,0.7,3.3,1.6,4.1,2.5C138.5-7.9,138.9-6.8,138.9-5.3z"></path>
        </g>
    </g>
</svg>