<?xml version="1.0" encoding="UTF-8"?>
<svg width="64" height="64" viewBox="0 0 64 64" fill="none" xmlns="http://www.w3.org/2000/svg">
  <circle cx="32" cy="32" r="32" fill="#EF0E42"/>
  <path d="M46.28 21.63C37.26 13.04 22.71 15.93 22.71 15.93L22.70 15.93C22.65 15.94 16.90 16.76 18.05 27.04C18.71 33.37 24.12 44.07 24.12 44.07C24.12 44.07 24.20 44.39 24.45 44.33C24.69 44.27 24.67 43.92 24.67 43.92C24.67 43.92 23.59 31.98 30.48 29.34L38.15 46.63C38.15 46.63 38.38 47.12 38.73 46.92C39.07 46.73 38.79 46.19 38.79 46.19L32.23 29.56C32.23 29.56 42.73 26.44 44.47 33.43L40.56 43.71C40.56 43.71 40.44 44.05 40.65 44.14C40.85 44.23 41.02 43.84 41.02 43.84L46.54 27.01C46.54 27.01 48.53 24.16 46.28 21.63Z" fill="white"/>
  <path d="M18.53 57.7H20.39V52.3H23.88V50.76H15.04V52.3H18.53V57.7ZM24.63 57.7H26.49V54.38C26.49 53.2 27.19 52.38 28.33 52.38C28.48 52.38 28.63 52.38 28.78 52.38V50.68C28.63 50.68 28.55 50.6 28.4 50.6C27.43 50.6 26.81 51.18 26.41 52.22H26.34V50.76H24.63V57.7ZM33.18 57.86C35.29 57.86 36.48 56.71 36.94 55.8L35.52 54.93C35.22 55.64 34.45 56.16 33.18 56.16C31.97 56.16 31.28 55.26 31.28 54.23C31.28 53.2 31.97 52.3 33.18 52.3C34.45 52.3 35.22 52.84 35.52 53.52L36.94 52.65C36.55 51.81 35.29 50.6 33.18 50.6C30.97 50.6 29.42 52.14 29.42 54.23C29.42 56.32 30.97 57.86 33.18 57.86ZM41.05 57.86C43.16 57.86 44.35 56.71 44.81 55.8L43.39 54.93C43.09 55.64 42.32 56.16 41.05 56.16C39.84 56.16 39.15 55.26 39.15 54.23C39.15 53.2 39.84 52.3 41.05 52.3C42.32 52.3 43.09 52.84 43.39 53.52L44.81 52.65C44.42 51.81 43.16 50.6 41.05 50.6C38.84 50.6 37.29 52.14 37.29 54.23C37.29 56.32 38.84 57.86 41.05 57.86ZM48.23 57.86C49.5 57.86 50.45 57.16 50.87 56.13H50.94V57.7H52.72V49.76H50.87V52.3H50.8C50.42 51.34 49.5 50.6 48.23 50.6C46.17 50.6 44.84 52.22 44.84 54.23C44.84 56.24 46.17 57.86 48.23 57.86ZM48.58 56.08C47.62 56.08 46.7 55.33 46.7 54.23C46.7 53.13 47.61 52.38 48.58 52.38C49.54 52.38 50.45 53.12 50.45 54.23C50.45 55.34 49.54 56.08 48.58 56.08Z" fill="white"/>
</svg>