<svg width="24" height="24" viewBox="0 0 24 24" fill="none" xmlns="http://www.w3.org/2000/svg">
  <circle cx="12" cy="12" r="12" fill="#EB0029"/>
  <path d="M17.694 8.2C14.257 4.92 8.575 6.03 8.575 6.03L8.573 6.031C8.555 6.031 6.41 6.318 6.792 10.157C7.025 12.558 8.954 16.578 8.954 16.578C8.954 16.578 8.983 16.704 9.079 16.68C9.173 16.656 9.164 16.524 9.164 16.524C9.164 16.524 8.768 12.064 11.38 11.05L14.266 17.547C14.266 17.547 14.353 17.719 14.48 17.651C14.607 17.583 14.499 17.369 14.499 17.369L12.099 11.134C12.099 11.134 16.15 9.972 16.764 12.539L15.302 16.452C15.302 16.452 15.259 16.58 15.328 16.612C15.397 16.644 15.458 16.5 15.458 16.5L17.49 10.175C17.49 10.175 18.223 9.105 17.694 8.2Z" fill="white"/>
</svg>