<?xml version="1.0" encoding="UTF-8"?>
<svg width="64" height="64" viewBox="0 0 64 64" fill="none" xmlns="http://www.w3.org/2000/svg">
  <circle cx="32" cy="32" r="32" fill="#EF0E42"/>
  <path d="M46.28 21.63C37.26 13.04 22.71 15.93 22.71 15.93L22.70 15.93C22.65 15.94 16.90 16.76 18.05 27.04C18.71 33.37 24.12 44.07 24.12 44.07C24.12 44.07 24.20 44.39 24.45 44.33C24.69 44.27 24.67 43.92 24.67 43.92C24.67 43.92 23.59 31.98 30.48 29.34L38.15 46.63C38.15 46.63 38.38 47.12 38.73 46.92C39.07 46.73 38.79 46.19 38.79 46.19L32.23 29.56C32.23 29.56 42.73 26.44 44.47 33.43L40.56 43.71C40.56 43.71 40.44 44.05 40.65 44.14C40.85 44.23 41.02 43.84 41.02 43.84L46.54 27.01C46.54 27.01 48.53 24.16 46.28 21.63Z" fill="white"/>
</svg>