<svg width="24" height="24" viewBox="0 0 24 24" fill="none" xmlns="http://www.w3.org/2000/svg">
  <circle cx="12" cy="12" r="12" fill="#26A17B"/>
  <path d="M12.0001 4.8V7.92012H16.0319V9.12012H7.96814V7.92012H12.0001V4.8H12.0001Z" fill="white"/>
  <path d="M12.0001 15.2068C11.0354 15.2068 10.2531 15.1684 9.61396 15.0918C8.97485 15.0152 8.42618 14.9227 7.96814 14.8143C7.51011 14.706 7.1157 14.5902 6.7851 14.4668C6.4545 14.3435 6.12742 14.1943 5.80386 14.0193V12.1793C6.12742 12.3543 6.4545 12.5035 6.7851 12.6268C7.1157 12.7502 7.51011 12.866 7.96814 12.9743C8.42618 13.0827 8.97485 13.1752 9.61396 13.2518C10.2531 13.3285 11.0354 13.3668 12.0001 13.3668C12.9647 13.3668 13.747 13.3285 14.3861 13.2518C15.0252 13.1752 15.5739 13.0827 16.0319 12.9743C16.4899 12.866 16.8844 12.7502 17.215 12.6268C17.5456 12.5035 17.8726 12.3543 18.1962 12.1793V14.0193C17.8726 14.1943 17.5456 14.3435 17.215 14.4668C16.8844 14.5902 16.4899 14.706 16.0319 14.8143C15.5739 14.9227 15.0252 15.0152 14.3861 15.0918C13.747 15.1684 12.9647 15.2068 12.0001 15.2068Z" fill="white"/>
  <path d="M12.0001 9.84009V10.0001C12.9647 10.0001 13.747 10.0384 14.3861 10.1151C15.0252 10.1918 15.5739 10.2843 16.0319 10.3926C16.4899 10.501 16.8844 10.6168 17.215 10.7401C17.5456 10.8635 17.8726 11.0126 18.1962 11.1876V9.84009H12.0001Z" fill="white"/>
  <path d="M5.80386 9.84009V11.1876C6.12742 11.0126 6.4545 10.8635 6.7851 10.7401C7.1157 10.6168 7.51011 10.501 7.96814 10.3926C8.42618 10.2843 8.97485 10.1918 9.61396 10.1151C10.2531 10.0384 11.0354 10.0001 12.0001 10.0001V9.84009H5.80386Z" fill="white"/>
  <path d="M9.24001 10.3005C9.23501 10.295 9.23501 10.2894 9.24001 10.284L9.24001 10.3005Z" fill="white"/>
</svg>