<?xml version="1.0" encoding="utf-8"?>
<svg version="1.1" id="Layer_1" xmlns="http://www.w3.org/2000/svg" xmlns:xlink="http://www.w3.org/1999/xlink" x="0px" y="0px"
	 viewBox="0 0 2000 2000" style="enable-background:new 0 0 2000 2000;" xml:space="preserve">
<path style="fill:#50AF95;" d="M1000,0c552.3,0,1000,447.7,1000,1000s-447.7,1000-1000,1000S0,1552.3,0,1000S447.7,0,1000,0"/>
<path style="fill:#FFFFFF;" d="M1123.4,866.8c0,5.6-2.1,17.6-5.5,26.4c-3.5,8.8-9.1,17-17.7,23.2c-8.6,6.3-19.7,12.3-33.4,16.4
	c-13.7,4.1-30.5,6.2-50.2,6.2H860.4v-68.9h151c4,0,8.2-0.2,12.2-1.1c4-0.8,7.6-2.4,10.7-4.5c3.1-2.2,5.6-5.2,7.4-9.4
	c1.8-4.2,2.5-9.6,2.5-16.4c0-6.5-0.5-11.9-2.1-16c-1.6-4.2-4-7.5-7.2-9.8c-3.2-2.3-7.1-3.8-11.7-4.5c-4.6-0.8-9.8-1-15.7-1H860.4
	c-0.8,0-1.5,0.1-2.3,0.1V806H995c0.8,0,1.5-0.1,2.3-0.1v-68.9c-0.8,0-1.5,0.1-2.3,0.1h-1.8c-9.5,0.1-19,0.1-28.5,0.1H681.7
	c0.8,0,1.5-0.1,2.3-0.1v355.7c-0.8,0-1.5,0.1-2.3,0.1H986c22.6,0,43.6-1.7,62.8-5.1c19.3-3.4,35.9-9.5,49.9-18.3
	c14-8.8,24.9-20.5,32.7-35.1c7.8-14.7,11.7-33.2,11.7-55.7c0-17.5-2.3-32.5-7-45c-4.7-12.5-11.6-22.9-20.7-31.2
	c-9.1-8.3-20.4-14.4-33.9-18.5c-7-2.1-14.6-3.5-22.7-4.5c8.1-1.2,15.6-2.9,22.7-5.5c13.1-4.8,24.2-11.5,33.1-20.2
	c8.9-8.7,15.8-19.5,20.5-32.4c4.7-12.9,7.1-28.2,7.1-45.8c0-17.3-2.8-32.2-8.5-44.6c-5.7-12.4-13.7-22.6-24-30.5
	c-10.4-7.9-22.7-13.7-37.1-17.4c-14.3-3.7-30.1-5.6-47.4-5.6H681.7c0.8,0,1.5,0.1,2.3,0.1v0.2v137.6v49.2v355.7v0.2
	c-0.8,0-1.5,0.1-2.3,0.1H485.9c0.8,0,1.5-0.1,2.3-0.1V358c-0.8,0-1.5,0.1-2.3,0.1H290c0.8,0,1.5-0.1,2.3-0.1V807v-0.4
	c-0.8,0-1.5,0.1-2.3,0.1H135.6c-0.8,0-1.5,0.1-2.3,0.1v134c0.8,0,1.5-0.1,2.3-0.1H290c-0.8,0-1.5,0.1-2.3,0.1v0.4v48.4v286.8
	c-0.8,0-1.5,0.1-2.3,0.1H485.9c-0.8,0-1.5,0.1-2.3,0.1V941c0.8,0,1.5-0.1,2.3-0.1h120v-23.8v-111c0.8,0,1.5-0.1,2.3-0.1h124.5V737
	c-0.8,0-1.5,0.1-2.3,0.1H606v-6.3V674c-0.8,0-1.5,0.1-2.3,0.1H679c-0.8,0-1.5,0.1-2.3,0.1v111.5v-0.2c-0.8,0-1.5,0.1-2.3,0.1
	h-116v23.8v131.7c-0.8,0-1.5,0.1-2.3,0.1h273.9v-0.2c0.8,0,1.5-0.1,2.3-0.1h156.1c18.6,0,33.4-2.2,44.4-6.5
	c11-4.3,19.4-10.3,25.3-17.8c5.9-7.5,9.5-16.3,11-26.4c1.4-10.1,1.9-21,1.9-32.5h0.2C1071,906.7,1123.4,892.5,1123.4,866.8"/>
<path style="fill:#FFFFFF;" d="M1471.5,1133.6c0-20.9-4.5-39.9-13.4-57.2c-8.9-17.2-22.3-32-40.1-44.5
	c-17.8-12.4-40.1-22.1-66.9-28.9c-26.8-6.8-58.2-10.2-94.1-10.2c-17.5,0-35.7,0.9-54.6,2.6c-19,1.7-38,4.3-57.2,7.7
	c-19.2,3.4-38.1,7.8-56.9,13.1c-18.8,5.3-36.8,11.6-54.1,18.8v171.8h6.2l19.9-13.4c17.5-11.8,36.1-21.9,55.6-30.5
	c19.5-8.6,39.1-15.6,58.7-21.1c19.5-5.5,38.5-9.6,56.7-12.3c18.3-2.7,34.9-4,49.9-4c35.8,0,62.5,5.2,79.9,15.7
	c17.5,10.5,26.2,27.6,26.2,51.4c0,11-4,20.9-12.1,29.9c-8.1,9-18.5,17.3-31.3,25.1c-12.8,7.8-27.2,15.1-43.1,22.1
	c-15.9,7-31.8,13.7-47.7,20c-18.8,7.5-38.1,15.7-57.7,24.4c-19.7,8.8-37.8,19.2-54.4,31.3c-16.6,12.1-30.3,26.5-41.2,43.3
	c-10.9,16.8-16.3,36.8-16.3,60.1c0,23.4,4.8,44.3,14.4,62.7c9.6,18.4,22.9,34.1,39.9,46.9c17,12.9,37.2,22.7,60.6,29.6
	c23.4,6.9,49,10.3,76.7,10.3c14.2,0,29.9-1.4,47.2-4.2c17.3-2.8,34.1-6.5,50.6-10.9c16.5-4.5,31.7-9.3,45.7-14.4
	c14-5.1,25.1-9.9,33.4-14.4v-155.9h-6.2l-18.3,12.9c-17,11.8-34.2,21.6-51.4,29.3c-17.3,7.7-34.5,13.8-51.7,18.3
	c-17.2,4.5-34.3,7.6-51.4,9.3c-17,1.7-34.4,2.6-52.2,2.6c-14.5,0-28.5-1.8-42-5.5c-13.5-3.7-25.4-8.8-35.8-15.2
	c-10.4-6.5-18.7-14.2-24.9-23.2c-6.2-9-9.3-18.6-9.3-28.9c0-12.7,4.3-23.7,13-33.2c8.6-9.5,19.9-18.3,33.7-26.5
	c13.8-8.2,29.1-15.9,45.9-23.2c16.8-7.3,33.4-14.7,49.9-22.1c18.5-8.3,37.2-17,56-26.2c18.8-9.2,35.9-20.1,51.4-32.7
	c15.5-12.6,28.2-27.6,38.1-45c10-17.4,14.9-38.4,14.9-62.9V1133.6z"/>
<path style="fill:#FFFFFF;" d="M1725,1272v143.6c0,40.9-4.3,76.4-12.8,106.6c-8.6,30.2-21.2,55.3-38,75.4
	c-16.8,20.1-37.7,35.1-62.7,45c-25,9.9-54.3,14.9-88,14.9c-32.1,0-60.4-4.6-85.1-13.9c-24.7-9.2-45.4-23.1-62.1-41.7
	c-16.8-18.6-29.5-42.2-38.3-71c-8.8-28.7-13.1-62.9-13.1-102.6v-23.2c3.2-0.5,7-1,11.3-1.3c4.3-0.3,8.3-0.5,12.1-0.5
	c3.5,0,7.3,0.2,11.3,0.5c4,0.3,7.9,0.8,11.8,1.3v23.2c0,33.9,3.2,63.3,9.5,88.2c6.4,24.9,16.1,45.5,29.3,61.9
	c13.1,16.3,29.7,28.5,49.7,36.4c20,7.9,43.8,11.8,71.3,11.8c29.3,0,54.3-4.3,75.2-13c20.9-8.7,38-21.7,51.4-39.1
	c13.4-17.4,23.2-39.2,29.6-65.5c6.4-26.2,9.5-57.1,9.5-92.6V1272c3.2-0.5,6.8-1,10.8-1.3c4-0.3,7.8-0.5,11.3-0.5
	c3.2,0,6.7,0.2,10.5,0.5C1717.9,1271,1721.5,1271.5,1725,1272"/>
<path style="fill:#FFFFFF;" d="M1864.2,1272v346.3c-3.2,0.5-6.9,1-11,1.3c-4.1,0.3-8,0.5-11.8,0.5c-3.8,0-7.7-0.2-11.8-0.5
	c-4.1-0.3-7.8-0.8-11-1.3V1272c3.5-0.5,7.2-1,11-1.3c3.8-0.3,7.6-0.5,11.3-0.5c3.8,0,7.7,0.2,11.8,0.5
	C1857.7,1271,1861.3,1271.5,1864.2,1272 M1841.5,1119.2c-6.2,0-12-1.2-17.6-3.7c-5.6-2.5-10.4-5.9-14.7-10.5
	c-4.2-4.5-7.6-9.8-10-15.7c-2.5-6-3.7-12.5-3.7-19.6c0-7,1.2-13.5,3.7-19.6c2.5-6,5.8-11.3,10-15.8c4.2-4.5,9.1-8,14.7-10.5
	c5.6-2.5,11.5-3.7,17.6-3.7c6.2,0,12.1,1.2,17.6,3.7c5.6,2.5,10.4,5.9,14.6,10.5c4.2,4.5,7.5,9.8,9.9,15.8c2.5,6,3.7,12.5,3.7,19.6
	c0,7-1.2,13.6-3.7,19.6c-2.5,6-5.7,11.2-9.9,15.7c-4.2,4.5-9,8-14.6,10.5C1853.5,1118,1847.7,1119.2,1841.5,1119.2"/>
</svg>