<svg width="24" height="24" viewBox="0 0 24 24" fill="none" xmlns="http://www.w3.org/2000/svg">
  <circle cx="12" cy="12" r="12" fill="#26A17B"/>
  <path d="M12.0074 5.00049V7.04688H16.5359V8.66113H7.48359V7.04688H12.0074V5.00049H12.0074Z" fill="white"/>
  <path d="M12.3648 15.8035C10.4684 15.8035 9.02153 15.5449 8.20996 15.2641C7.39839 14.9832 6.9926 14.5914 6.9926 14.0887V12.4918H9.78573V13.2957C9.78573 13.4199 9.86182 13.5395 10.014 13.6547C10.1662 13.7699 10.4016 13.8729 10.7201 13.9636C11.0387 14.0544 11.4294 14.0998 11.8809 14.0998C12.3325 14.0998 12.7232 14.0544 13.0417 13.9636C13.3603 13.8729 13.5956 13.7699 13.7478 13.6547C13.9 13.5395 13.9761 13.4199 13.9761 13.2957V12.5941C13.9761 12.4688 13.9011 12.3482 13.7511 12.2323C13.6011 12.1164 13.3694 12.0125 13.0562 11.9207C12.743 11.8289 12.3599 11.7825 11.917 11.7815L10.4807 11.7722C9.56996 11.766 8.77902 11.6855 8.10789 11.5306C7.43677 11.3758 6.92744 11.141 6.57992 10.8262C6.23239 10.5114 6.05863 10.1007 6.05863 9.59414V8.95824C6.05863 8.45281 6.33203 8.02603 6.87881 7.6779C7.42559 7.32977 8.21112 7.06699 9.23538 6.88957C10.2596 6.71215 11.4548 6.62344 12.8208 6.62344C14.1868 6.62344 15.3815 6.71215 16.4048 6.88957C17.4281 7.06699 18.2131 7.32977 18.7598 7.6779C19.3066 8.02603 19.58 8.45281 19.58 8.95824V10.5551H16.7869V9.75122C16.7869 9.62706 16.7108 9.50855 16.5587 9.39568C16.4065 9.28282 16.1711 9.18207 15.8526 9.09344C15.534 9.00481 15.1433 8.9605 14.6918 8.9605C14.2402 8.9605 13.8495 9.00481 13.531 9.09344C13.2124 9.18207 12.977 9.28282 12.8249 9.39568C12.6727 9.50855 12.5966 9.62706 12.5966 9.75122V10.4528C12.5966 10.5781 12.6722 10.6993 12.8234 10.8165C12.9746 10.9336 13.208 11.0389 13.5235 11.1323C13.839 11.2257 14.2258 11.2726 14.6736 11.2726L16.1099 11.2819C17.0207 11.288 17.8116 11.3685 18.4828 11.5234C19.1539 11.6783 19.6632 11.9131 20.0108 12.2278C20.3583 12.5426 20.5321 12.9533 20.5321 13.4599V14.0958C20.5321 14.6013 20.2587 15.028 19.7119 15.3762C19.1651 15.7243 18.3796 15.9871 17.3554 16.1645C16.3311 16.3419 15.1359 16.4306 13.7699 16.4306C13.2878 16.4306 12.8206 16.4173 12.3684 16.3909C11.9161 16.3644 11.6172 16.3328 11.3716 16.296L11.0214 16.24C10.9482 16.2275 10.8779 16.2144 10.8107 16.2006C10.2695 16.1003 9.81661 15.9855 9.45205 15.8564C9.0875 15.7272 8.81131 15.5867 8.6235 15.4347C8.4357 15.2827 8.3418 15.1231 8.3418 14.9557L8.34192 13.2957H5.54867V14.8926C5.54867 15.3967 5.95446 15.7871 6.76603 16.0639C7.5776 16.3407 8.75078 16.4791 10.1046 16.4791H11.3605C12.0618 16.4791 12.6951 16.4583 13.2602 16.4166C13.8254 16.3749 14.3087 16.3136 14.7101 16.2326C15.1115 16.1517 15.4245 16.0513 15.6492 15.9316C15.8738 15.8119 16.0289 15.673 16.1145 15.5149C16.2 15.3567 16.2428 15.1793 16.2428 14.9826V13.2957H13.9761V14.8926C13.9761 15.118 13.8238 15.3078 13.5193 15.4619C13.2148 15.616 12.8075 15.7301 12.2973 15.8035H11.9034C11.7937 15.8035 11.6861 15.8035 11.5805 15.8035H12.3648Z" fill="white"/>
</svg>