<?xml version="1.0" encoding="UTF-8"?>
<svg width="64" height="64" viewBox="0 0 64 64" fill="none" xmlns="http://www.w3.org/2000/svg">
  <circle cx="32" cy="32" r="32" fill="#26A17B"/>
  <path d="M38.533 32.293V28.413H44.706V22.293H19.253V28.413H25.44V32.307C21.64 32.507 19 33.107 19 33.827C19 34.547 21.653 35.16 25.467 35.347V45.667H38.533V35.347C42.34 35.16 45 34.547 45 33.827C45 33.107 42.347 32.493 38.533 32.293ZM38.56 34.587C38.36 34.613 38.12 34.64 37.853 34.667C36.787 34.773 35.24 34.853 33.44 34.853C32.187 34.853 31.053 34.813 30.067 34.733C29.68 34.707 29.32 34.667 28.987 34.627C28.64 34.6 28.307 34.56 28 34.52V43.107H36V34.52C35.733 34.547 35.453 34.573 35.147 34.6C35.027 34.613 34.893 34.613 34.76 34.627C34.4 34.64 34.013 34.667 33.64 34.68C33.493 34.693 33.333 34.693 33.187 34.693C33.613 34.667 34.053 34.653 34.467 34.627C35.653 34.533 36.667 34.373 37.387 34.147C37.8 34.027 38.12 33.893 38.333 33.733C38.44 33.667 38.507 33.587 38.56 33.52C38.52 33.58 38.44 33.667 38.333 33.733C38.12 33.893 37.813 34.027 37.387 34.147C36.667 34.373 35.64 34.533 34.467 34.627C34.053 34.667 33.6 34.68 33.187 34.693C33.267 34.693 33.347 34.693 33.427 34.693C33.987 34.693 34.52 34.68 35.013 34.653C35.04 34.653 35.067 34.653 35.093 34.653C35.427 34.627 35.733 34.6 36.013 34.573C36.053 34.573 36.093 34.56 36.133 34.56C36.4 34.533 36.627 34.507 36.84 34.48C37.027 34.467 37.187 34.44 37.333 34.427C37.547 34.4 37.733 34.387 37.893 34.373C38.107 34.347 38.307 34.347 38.44 34.333C38.48 34.347 38.52 34.347 38.56 34.587ZM34.827 32.267C35.773 32.187 36.6 32.027 37.227 31.8C38.413 31.373 38.56 30.827 38.56 30.56C38.56 30.587 38.56 30.6 38.56 30.64C38.56 30.907 38.427 31.44 37.227 31.88C36.6 32.093 35.773 32.267 34.827 32.333C33.92 32.413 32.92 32.453 31.893 32.453C30.867 32.453 29.867 32.413 28.973 32.333C28.04 32.253 27.2 32.093 26.587 31.88C25.387 31.44 25.253 30.907 25.253 30.64C25.253 30.893 25.387 31.44 26.587 31.88C27.213 32.093 28.027 32.267 28.973 32.333C29.867 32.413 30.867 32.453 31.893 32.453C32.92 32.453 33.92 32.413 34.827 32.267ZM34.827 29.68C35.773 29.6 36.6 29.44 37.227 29.213C38.413 28.787 38.56 28.24 38.56 27.973C38.56 28 38.56 28.027 38.56 28.053C38.56 28.333 38.427 28.867 37.227 29.307C36.6 29.52 35.773 29.693 34.827 29.76C33.92 29.84 32.92 29.88 31.893 29.88C30.867 29.88 29.867 29.84 28.973 29.76C28.04 29.68 27.2 29.52 26.587 29.307C25.387 28.867 25.253 28.333 25.253 28.053C25.253 28.067 25.253 28.08 25.253 28.093C25.253 28.347 25.387 28.893 26.587 29.333C27.213 29.547 28.027 29.72 28.973 29.787C29.867 29.867 30.867 29.907 31.893 29.907C32.92 29.907 33.92 29.867 34.827 29.733V29.68ZM37.227 26.707C36.6 26.92 35.773 27.093 34.827 27.16C33.92 27.24 32.92 27.28 31.893 27.28C30.867 27.28 29.867 27.24 28.973 27.16C28.027 27.093 27.213 26.92 26.587 26.707C25.387 26.267 25.253 25.733 25.253 25.453C25.253 25.187 25.387 24.653 26.587 24.213C27.213 24 28.027 23.827 28.973 23.76C29.867 23.68 30.867 23.64 31.893 23.64C32.92 23.64 33.92 23.68 34.827 23.76C35.773 23.827 36.6 24 37.227 24.213C38.413 24.653 38.56 25.2 38.56 25.467C38.56 25.733 38.427 26.267 37.227 26.707ZM32 21.147C25.307 21.147 19.88 22.28 19.88 23.667C19.88 25.04 25.307 26.187 32 26.187C38.693 26.187 44.12 25.053 44.12 23.667C44.12 22.28 38.693 21.147 32 21.147Z" fill="white"/>
</svg>