<?xml version="1.0" encoding="utf-8"?>
<svg xmlns="http://www.w3.org/2000/svg" viewBox="0 0 2000 2000">
  <circle cx="1000" cy="1000" r="1000" fill="#26A17B"/>
  <path d="M1000,0C447.8,0,0,447.8,0,1000s447.8,1000,1000,1000s1000-447.8,1000-1000S1552.2,0,1000,0z M1275.6,1291.6 c-55.4,28.7-176.9,43-324.7,43s-269.4-14.3-324.7-43c-41.9-21.8-65.1-47.8-66.3-82.2v-106c1.2,34.3,24.4,60.3,66.3,82.2 c55.4,28.7,176.9,43,324.7,43s269.3-14.3,324.7-43c41.9-21.8,65.1-47.9,66.3-82.2v106C1340.7,1243.7,1317.5,1269.8,1275.6,1291.6z M1275.6,1144.2c-55.4,28.7-176.9,43-324.7,43s-269.4-14.3-324.7-43c-41.9-21.8-65.1-47.8-66.3-82.2v-106 c1.2,34.3,24.4,60.3,66.3,82.2c55.4,28.7,176.9,43,324.7,43s269.3-14.3,324.7-43c41.9-21.8,65.1-47.9,66.3-82.2v106 C1340.7,1096.4,1317.5,1122.4,1275.6,1144.2z M1275.6,996.9c-55.4,28.7-176.9,43-324.7,43s-269.4-14.3-324.7-43 c-41.9-21.8-65.1-47.8-66.3-82.2v-106c1.2,34.3,24.4,60.3,66.3,82.2c55.4,28.7,176.9,43,324.7,43s269.3-14.3,324.7-43 c41.9-21.8,65.1-47.9,66.3-82.2v106C1340.7,949,1317.5,975.1,1275.6,996.9z M950.9,700.6c136.9,0,247.9-11.5,247.9-25.7 S1087.8,649.2,950.9,649.2S703,660.7,703,674.9S814,700.6,950.9,700.6z M1275.6,849.5c-55.4,28.7-176.9,43-324.7,43 s-269.4-14.3-324.7-43c-42.9-22.2-66.2-49-66.3-83.8l0-87.8c18.6,33.8,64.4,57.4,123,71.2c59.6,14,138.2,21.6,219,21.6 c80.8,0,159.5-7.6,219-21.6c59.6-14,105.9-38.1,123.9-72.4l0,89.1C1340.7,800.5,1317.5,827.2,1275.6,849.5z" fill="white"/>
</svg>